<?xml version="1.0" encoding="iso-8859-1"?>
<!-- Generator: Adobe Illustrator 19.1.0, SVG Export Plug-In . SVG Version: 6.00 Build 0)  -->
<svg version="1.1" id="Capa_1" xmlns="http://www.w3.org/2000/svg" xmlns:xlink="http://www.w3.org/1999/xlink" x="0px" y="0px"
	 viewBox="0 0 320.545 320.545" style="enable-background:new 0 0 320.545 320.545;" xml:space="preserve">
<g>
	<path d="M160.272,0C71.762,0,0,71.756,0,160.272s71.756,160.272,160.272,160.272s160.272-71.756,160.272-160.272
		S248.783,0,160.272,0z M160.272,307.685c-81.287,0-147.419-66.132-147.419-147.419S78.986,12.847,160.272,12.847
		c81.28,0,147.419,66.132,147.419,147.419C307.685,241.553,241.553,307.685,160.272,307.685z M243.834,230.588
		c3.766,3.766,3.766,9.872,0,13.638c-3.766,3.76-9.865,3.766-13.631,0l-68.234-68.227c-0.495,0.051-0.97,0.148-1.478,0.148
		c-8.657,0-15.669-7.018-15.669-15.669c0-4.994,2.378-9.39,6.022-12.262V72.97c0-5.321,4.319-9.64,9.64-9.64
		c5.328,0,9.647,4.319,9.647,9.64v75.252c3.638,2.866,6.028,7.269,6.028,12.262c0,0.752-0.122,1.472-0.219,2.198L243.834,230.588z"
		/>
</g>
<g>
</g>
<g>
</g>
<g>
</g>
<g>
</g>
<g>
</g>
<g>
</g>
<g>
</g>
<g>
</g>
<g>
</g>
<g>
</g>
<g>
</g>
<g>
</g>
<g>
</g>
<g>
</g>
<g>
</g>
</svg>
