<?xml version="1.0" encoding="iso-8859-1"?>
<!-- Generator: Adobe Illustrator 19.0.0, SVG Export Plug-In . SVG Version: 6.00 Build 0)  -->
<svg version="1.1" id="Layer_1" xmlns="http://www.w3.org/2000/svg" xmlns:xlink="http://www.w3.org/1999/xlink" x="0px" y="0px"
	 viewBox="0 0 512 512" style="enable-background:new 0 0 512 512;" xml:space="preserve">
<path style="fill:#FF9900;" d="M175.033,285.767H50.009c-9.864,0-17.86-7.997-17.86-17.86v-62.512
	c0-44.318,36.054-80.372,80.372-80.372s80.372,36.054,80.372,80.372v62.512C192.893,277.771,184.896,285.767,175.033,285.767z"/>
<path style="fill:#FFDB2D;" d="M112.521,160.744c-44.318,0-80.372-36.054-80.372-80.372S68.203,0,112.521,0
	s80.372,36.054,80.372,80.372S156.839,160.744,112.521,160.744z"/>
<path style="fill:#FF9900;" d="M461.991,512H336.967c-9.864,0-17.86-7.997-17.86-17.86v-62.512
	c0-44.318,36.054-80.372,80.372-80.372s80.372,36.054,80.372,80.372v62.512C479.851,504.003,471.854,512,461.991,512z"/>
<path style="fill:#FF4F19;" d="M399.479,351.256V512h62.512c9.859,0,17.86-8.001,17.86-17.86v-62.512
	C479.851,387.31,443.797,351.256,399.479,351.256z"/>
<path style="fill:#FFDB2D;" d="M399.479,386.977c-44.318,0-80.372-36.054-80.372-80.372s36.054-80.372,80.372-80.372
	s80.372,36.054,80.372,80.372S443.797,386.977,399.479,386.977z"/>
<path style="fill:#FF9900;" d="M399.479,226.233v160.744c44.318,0,80.372-36.054,80.372-80.372S443.797,226.233,399.479,226.233z"/>
<path style="fill:#FF4F19;" d="M112.521,125.023v160.744h62.512c9.859,0,17.86-8.001,17.86-17.86v-62.512
	C192.893,161.078,156.839,125.023,112.521,125.023z"/>
<path style="fill:#FF9900;" d="M112.521,0v160.744c44.318,0,80.372-36.054,80.372-80.372S156.839,0,112.521,0z"/>
<path style="fill:#B9F7F9;" d="M256,421.961c-49.054,0-95.331-21.534-126.966-59.08c-6.356-7.543-5.393-18.811,2.15-25.167
	c7.543-6.356,18.811-5.393,25.167,2.15c24.832,29.472,61.153,46.375,99.649,46.375c9.864,0,17.86,7.997,17.86,17.86
	S265.864,421.961,256,421.961z"/>
<path style="fill:#00D8E0;" d="M355.649,172.136C330.817,142.663,294.496,125.76,256,125.76c-9.864,0-17.86-7.997-17.86-17.86
	s7.997-17.86,17.86-17.86c49.054,0,95.331,21.534,126.966,59.08c6.356,7.543,5.393,18.811-2.15,25.167
	C373.273,180.642,362.007,179.68,355.649,172.136z"/>
<g>
</g>
<g>
</g>
<g>
</g>
<g>
</g>
<g>
</g>
<g>
</g>
<g>
</g>
<g>
</g>
<g>
</g>
<g>
</g>
<g>
</g>
<g>
</g>
<g>
</g>
<g>
</g>
<g>
</g>
</svg>
